<mxfile host="app.diagrams.net" modified="2021-10-23T20:16:48.204Z" agent="5.0 (Windows NT 10.0; Win64; x64) AppleWebKit/537.36 (KHTML, like Gecko) Chrome/95.0.4638.54 Safari/537.36" etag="e6f-YQ7uB_CVRlU66TuY" version="15.5.8" type="github">
  <diagram id="p7kDaAFhIi68iwCFzF20" name="Página-1">
    <mxGraphModel dx="1014" dy="546" grid="1" gridSize="10" guides="1" tooltips="1" connect="1" arrows="1" fold="1" page="1" pageScale="1" pageWidth="827" pageHeight="1169" math="0" shadow="0">
      <root>
        <mxCell id="qlQ8PFDM8nDWPTk6npvO-0" />
        <mxCell id="qlQ8PFDM8nDWPTk6npvO-1" parent="qlQ8PFDM8nDWPTk6npvO-0" />
        <mxCell id="aVcyfSPcGgtynPqEaSZF-3" value="&lt;font style=&quot;font-size: 24px&quot; face=&quot;Comic Sans MS&quot;&gt;&lt;b&gt;&lt;u&gt;Loja de Carros&lt;/u&gt;&lt;/b&gt;&lt;/font&gt;" style="rounded=0;whiteSpace=wrap;html=1;sketch=1;fillColor=#4D4D4D;" parent="qlQ8PFDM8nDWPTk6npvO-1" vertex="1">
          <mxGeometry x="280" width="250" height="60" as="geometry" />
        </mxCell>
        <mxCell id="aVcyfSPcGgtynPqEaSZF-15" style="edgeStyle=none;rounded=0;orthogonalLoop=1;jettySize=auto;html=1;exitX=0;exitY=1;exitDx=0;exitDy=0;entryX=1;entryY=0;entryDx=0;entryDy=0;fontFamily=Comic Sans MS;fontSize=10;" parent="qlQ8PFDM8nDWPTk6npvO-1" source="aVcyfSPcGgtynPqEaSZF-8" target="aVcyfSPcGgtynPqEaSZF-12" edge="1">
          <mxGeometry relative="1" as="geometry" />
        </mxCell>
        <mxCell id="aVcyfSPcGgtynPqEaSZF-16" style="edgeStyle=none;rounded=0;orthogonalLoop=1;jettySize=auto;html=1;exitX=1;exitY=1;exitDx=0;exitDy=0;entryX=0;entryY=0;entryDx=0;entryDy=0;fontFamily=Comic Sans MS;fontSize=10;" parent="qlQ8PFDM8nDWPTk6npvO-1" source="aVcyfSPcGgtynPqEaSZF-8" target="aVcyfSPcGgtynPqEaSZF-11" edge="1">
          <mxGeometry relative="1" as="geometry" />
        </mxCell>
        <mxCell id="aVcyfSPcGgtynPqEaSZF-8" value="&lt;font style=&quot;font-size: 18px&quot;&gt;&lt;b&gt;Projeto&lt;/b&gt;&lt;/font&gt;" style="rounded=1;whiteSpace=wrap;html=1;fontFamily=Comic Sans MS;fontSize=24;sketch=1;fillColor=#FF6666;strokeColor=#FF0000;" parent="qlQ8PFDM8nDWPTk6npvO-1" vertex="1">
          <mxGeometry x="343.25" y="160" width="120" height="30" as="geometry" />
        </mxCell>
        <mxCell id="aVcyfSPcGgtynPqEaSZF-31" style="edgeStyle=none;rounded=0;orthogonalLoop=1;jettySize=auto;html=1;exitX=0.5;exitY=1;exitDx=0;exitDy=0;fontFamily=Comic Sans MS;fontSize=12;entryX=0.5;entryY=0;entryDx=0;entryDy=0;" parent="qlQ8PFDM8nDWPTk6npvO-1" source="aVcyfSPcGgtynPqEaSZF-11" target="aVcyfSPcGgtynPqEaSZF-30" edge="1">
          <mxGeometry relative="1" as="geometry">
            <mxPoint x="588.25" y="290" as="targetPoint" />
          </mxGeometry>
        </mxCell>
        <mxCell id="aVcyfSPcGgtynPqEaSZF-11" value="Back End" style="rounded=1;whiteSpace=wrap;html=1;fontFamily=Comic Sans MS;fontSize=18;arcSize=50;" parent="qlQ8PFDM8nDWPTk6npvO-1" vertex="1">
          <mxGeometry x="508.25" y="210" width="120" height="60" as="geometry" />
        </mxCell>
        <mxCell id="aVcyfSPcGgtynPqEaSZF-13" style="edgeStyle=none;rounded=0;orthogonalLoop=1;jettySize=auto;html=1;exitX=0.5;exitY=1;exitDx=0;exitDy=0;fontFamily=Comic Sans MS;fontSize=18;" parent="qlQ8PFDM8nDWPTk6npvO-1" source="aVcyfSPcGgtynPqEaSZF-12" edge="1">
          <mxGeometry relative="1" as="geometry">
            <mxPoint x="238.25" y="300" as="targetPoint" />
          </mxGeometry>
        </mxCell>
        <mxCell id="aVcyfSPcGgtynPqEaSZF-12" value="Front End" style="rounded=1;whiteSpace=wrap;html=1;fontFamily=Comic Sans MS;fontSize=18;arcSize=50;" parent="qlQ8PFDM8nDWPTk6npvO-1" vertex="1">
          <mxGeometry x="178.25" y="210" width="120" height="60" as="geometry" />
        </mxCell>
        <mxCell id="aVcyfSPcGgtynPqEaSZF-17" style="edgeStyle=none;rounded=0;orthogonalLoop=1;jettySize=auto;html=1;exitX=0.5;exitY=1;exitDx=0;exitDy=0;fontFamily=Comic Sans MS;fontSize=12;" parent="qlQ8PFDM8nDWPTk6npvO-1" source="aVcyfSPcGgtynPqEaSZF-14" edge="1">
          <mxGeometry relative="1" as="geometry">
            <mxPoint x="238.25" y="360" as="targetPoint" />
          </mxGeometry>
        </mxCell>
        <mxCell id="aVcyfSPcGgtynPqEaSZF-14" value="&lt;font style=&quot;font-size: 12px&quot;&gt;Interface do usuário&lt;/font&gt;" style="shape=process;whiteSpace=wrap;html=1;backgroundOutline=1;fontFamily=Comic Sans MS;fontSize=18;size=0.02631578947368421;" parent="qlQ8PFDM8nDWPTk6npvO-1" vertex="1">
          <mxGeometry x="143.25" y="300" width="190" height="30" as="geometry" />
        </mxCell>
        <mxCell id="aVcyfSPcGgtynPqEaSZF-21" style="edgeStyle=none;rounded=0;orthogonalLoop=1;jettySize=auto;html=1;exitX=0.5;exitY=1;exitDx=0;exitDy=0;fontFamily=Comic Sans MS;fontSize=12;" parent="qlQ8PFDM8nDWPTk6npvO-1" source="aVcyfSPcGgtynPqEaSZF-19" edge="1">
          <mxGeometry relative="1" as="geometry">
            <mxPoint x="238.25" y="430" as="targetPoint" />
          </mxGeometry>
        </mxCell>
        <mxCell id="aVcyfSPcGgtynPqEaSZF-19" value="Mostruário de produtos" style="rounded=0;whiteSpace=wrap;html=1;fontFamily=Comic Sans MS;fontSize=12;" parent="qlQ8PFDM8nDWPTk6npvO-1" vertex="1">
          <mxGeometry x="138.25" y="360" width="200" height="30" as="geometry" />
        </mxCell>
        <mxCell id="aVcyfSPcGgtynPqEaSZF-26" style="edgeStyle=none;rounded=0;orthogonalLoop=1;jettySize=auto;html=1;fontFamily=Comic Sans MS;fontSize=12;exitX=1;exitY=0.667;exitDx=0;exitDy=0;exitPerimeter=0;" parent="qlQ8PFDM8nDWPTk6npvO-1" source="aVcyfSPcGgtynPqEaSZF-20" target="aVcyfSPcGgtynPqEaSZF-27" edge="1">
          <mxGeometry relative="1" as="geometry">
            <mxPoint x="468.25" y="440" as="targetPoint" />
            <mxPoint x="348.25" y="450" as="sourcePoint" />
          </mxGeometry>
        </mxCell>
        <mxCell id="aVcyfSPcGgtynPqEaSZF-20" value="Cadastro e confirmação&amp;nbsp;de clientes" style="rounded=0;whiteSpace=wrap;html=1;fontFamily=Comic Sans MS;fontSize=12;" parent="qlQ8PFDM8nDWPTk6npvO-1" vertex="1">
          <mxGeometry x="138.25" y="430" width="200" height="30" as="geometry" />
        </mxCell>
        <mxCell id="aVcyfSPcGgtynPqEaSZF-24" value="&lt;font style=&quot;font-size: 13px&quot;&gt;Venda ao cliente&lt;/font&gt;" style="rounded=0;whiteSpace=wrap;html=1;fontFamily=Comic Sans MS;fontSize=12;" parent="qlQ8PFDM8nDWPTk6npvO-1" vertex="1">
          <mxGeometry x="338.25" y="490" width="120" height="30" as="geometry" />
        </mxCell>
        <mxCell id="aVcyfSPcGgtynPqEaSZF-35" style="edgeStyle=none;rounded=0;orthogonalLoop=1;jettySize=auto;html=1;exitX=0.5;exitY=0;exitDx=0;exitDy=0;fontFamily=Comic Sans MS;fontSize=12;" parent="qlQ8PFDM8nDWPTk6npvO-1" source="aVcyfSPcGgtynPqEaSZF-27" edge="1">
          <mxGeometry relative="1" as="geometry">
            <mxPoint x="568.25" y="410" as="targetPoint" />
          </mxGeometry>
        </mxCell>
        <mxCell id="aVcyfSPcGgtynPqEaSZF-27" value="Formulários de cadastramento de clientes recebidos" style="rounded=0;whiteSpace=wrap;html=1;fontFamily=Comic Sans MS;fontSize=12;" parent="qlQ8PFDM8nDWPTk6npvO-1" vertex="1">
          <mxGeometry x="478.25" y="432.5" width="180" height="27.5" as="geometry" />
        </mxCell>
        <mxCell id="aVcyfSPcGgtynPqEaSZF-36" style="edgeStyle=none;rounded=0;orthogonalLoop=1;jettySize=auto;html=1;exitX=0.5;exitY=0;exitDx=0;exitDy=0;entryX=0.5;entryY=1;entryDx=0;entryDy=0;fontFamily=Comic Sans MS;fontSize=12;" parent="qlQ8PFDM8nDWPTk6npvO-1" source="aVcyfSPcGgtynPqEaSZF-28" target="aVcyfSPcGgtynPqEaSZF-30" edge="1">
          <mxGeometry relative="1" as="geometry" />
        </mxCell>
        <mxCell id="aVcyfSPcGgtynPqEaSZF-38" style="edgeStyle=none;rounded=0;orthogonalLoop=1;jettySize=auto;html=1;exitX=0;exitY=0.5;exitDx=0;exitDy=0;fontFamily=Comic Sans MS;fontSize=12;entryX=1;entryY=0;entryDx=0;entryDy=0;entryPerimeter=0;" parent="qlQ8PFDM8nDWPTk6npvO-1" source="aVcyfSPcGgtynPqEaSZF-30" target="aVcyfSPcGgtynPqEaSZF-20" edge="1">
          <mxGeometry relative="1" as="geometry">
            <mxPoint x="348.25" y="430" as="targetPoint" />
          </mxGeometry>
        </mxCell>
        <mxCell id="aVcyfSPcGgtynPqEaSZF-28" value="Confirmação automática de dados&lt;br&gt;e&lt;br&gt;Regra de negócio" style="rounded=0;whiteSpace=wrap;html=1;fontFamily=Comic Sans MS;fontSize=12;" parent="qlQ8PFDM8nDWPTk6npvO-1" vertex="1">
          <mxGeometry x="468.25" y="360" width="200" height="50" as="geometry" />
        </mxCell>
        <mxCell id="aVcyfSPcGgtynPqEaSZF-29" value="Banco de&lt;br&gt;Dados" style="shape=cylinder3;whiteSpace=wrap;html=1;boundedLbl=1;backgroundOutline=1;size=25;fontFamily=Comic Sans MS;fontSize=12;" parent="qlQ8PFDM8nDWPTk6npvO-1" vertex="1">
          <mxGeometry x="728.25" y="420" width="80" height="100" as="geometry" />
        </mxCell>
        <mxCell id="aVcyfSPcGgtynPqEaSZF-34" style="edgeStyle=none;rounded=0;orthogonalLoop=1;jettySize=auto;html=1;exitX=1;exitY=0.5;exitDx=0;exitDy=0;fontFamily=Comic Sans MS;fontSize=12;entryX=0.338;entryY=-0.02;entryDx=0;entryDy=0;entryPerimeter=0;" parent="qlQ8PFDM8nDWPTk6npvO-1" source="aVcyfSPcGgtynPqEaSZF-30" target="aVcyfSPcGgtynPqEaSZF-29" edge="1">
          <mxGeometry relative="1" as="geometry">
            <mxPoint x="748.25" y="440" as="targetPoint" />
          </mxGeometry>
        </mxCell>
        <mxCell id="aVcyfSPcGgtynPqEaSZF-30" value="&lt;span&gt;Confirmação de e-mail&lt;/span&gt;" style="rounded=0;whiteSpace=wrap;html=1;fontFamily=Comic Sans MS;fontSize=12;" parent="qlQ8PFDM8nDWPTk6npvO-1" vertex="1">
          <mxGeometry x="478.25" y="300" width="180" height="30" as="geometry" />
        </mxCell>
        <mxCell id="bIJbOU5z_14CMwWA4z-d-14" style="edgeStyle=orthogonalEdgeStyle;rounded=0;orthogonalLoop=1;jettySize=auto;html=1;exitX=0.75;exitY=1;exitDx=0;exitDy=0;entryX=0.625;entryY=0;entryDx=0;entryDy=0;entryPerimeter=0;fontFamily=Comic Sans MS;fontSize=14;fontColor=#000000;" parent="qlQ8PFDM8nDWPTk6npvO-1" source="bIJbOU5z_14CMwWA4z-d-3" target="bIJbOU5z_14CMwWA4z-d-5" edge="1">
          <mxGeometry relative="1" as="geometry" />
        </mxCell>
        <mxCell id="bIJbOU5z_14CMwWA4z-d-3" value="&lt;font face=&quot;Comic Sans MS&quot; style=&quot;font-size: 18px&quot;&gt;&lt;b&gt;Arquitetura de Software&lt;/b&gt;&lt;/font&gt;" style="rounded=1;whiteSpace=wrap;html=1;fillColor=#3399FF;strokeColor=#6c8ebf;sketch=1;glass=0;" parent="qlQ8PFDM8nDWPTk6npvO-1" vertex="1">
          <mxGeometry x="278.25" y="540" width="241.75" height="40" as="geometry" />
        </mxCell>
        <mxCell id="bIJbOU5z_14CMwWA4z-d-4" value="&lt;font size=&quot;3&quot;&gt;Banco de Dados&lt;/font&gt;" style="shape=cylinder3;whiteSpace=wrap;html=1;boundedLbl=1;backgroundOutline=1;size=10;fontFamily=Comic Sans MS;fontSize=18;" parent="qlQ8PFDM8nDWPTk6npvO-1" vertex="1">
          <mxGeometry x="648.25" y="590" width="80" height="100" as="geometry" />
        </mxCell>
        <mxCell id="bIJbOU5z_14CMwWA4z-d-5" value="&lt;font style=&quot;font-size: 16px&quot;&gt;Back End&lt;/font&gt;" style="rounded=1;whiteSpace=wrap;html=1;fontFamily=Comic Sans MS;fontSize=18;" parent="qlQ8PFDM8nDWPTk6npvO-1" vertex="1">
          <mxGeometry x="398.25" y="600" width="120" height="60" as="geometry" />
        </mxCell>
        <mxCell id="bIJbOU5z_14CMwWA4z-d-6" value="&lt;font style=&quot;font-size: 16px&quot;&gt;Cyber Segurança&lt;/font&gt;" style="rounded=1;whiteSpace=wrap;html=1;fontFamily=Comic Sans MS;fontSize=18;" parent="qlQ8PFDM8nDWPTk6npvO-1" vertex="1">
          <mxGeometry x="278.25" y="670" width="120" height="60" as="geometry" />
        </mxCell>
        <mxCell id="bIJbOU5z_14CMwWA4z-d-7" value="&lt;font size=&quot;3&quot;&gt;Front End&lt;/font&gt;" style="rounded=1;whiteSpace=wrap;html=1;fontFamily=Comic Sans MS;fontSize=18;" parent="qlQ8PFDM8nDWPTk6npvO-1" vertex="1">
          <mxGeometry x="158.25" y="600" width="120" height="60" as="geometry" />
        </mxCell>
        <mxCell id="bIJbOU5z_14CMwWA4z-d-8" value="&lt;font face=&quot;Comic Sans MS&quot; style=&quot;font-size: 18px&quot;&gt;&lt;b&gt;Arquitetura de Hardware&lt;/b&gt;&lt;/font&gt;" style="rounded=1;whiteSpace=wrap;html=1;fillColor=#4D9900;strokeColor=#009900;sketch=1;strokeWidth=1;perimeterSpacing=0;" parent="qlQ8PFDM8nDWPTk6npvO-1" vertex="1">
          <mxGeometry x="278.25" y="750" width="241.75" height="40" as="geometry" />
        </mxCell>
        <mxCell id="bIJbOU5z_14CMwWA4z-d-9" value="" style="curved=1;endArrow=classic;html=1;rounded=0;fontFamily=Comic Sans MS;fontSize=14;fontColor=#000000;exitX=1;exitY=0.5;exitDx=0;exitDy=0;entryX=0;entryY=0.5;entryDx=0;entryDy=0;entryPerimeter=0;" parent="qlQ8PFDM8nDWPTk6npvO-1" source="bIJbOU5z_14CMwWA4z-d-5" target="bIJbOU5z_14CMwWA4z-d-4" edge="1">
          <mxGeometry width="50" height="50" relative="1" as="geometry">
            <mxPoint x="458.25" y="750" as="sourcePoint" />
            <mxPoint x="548.25" y="710" as="targetPoint" />
            <Array as="points">
              <mxPoint x="588.25" y="570" />
              <mxPoint x="558.25" y="680" />
            </Array>
          </mxGeometry>
        </mxCell>
        <mxCell id="bIJbOU5z_14CMwWA4z-d-10" value="" style="curved=1;endArrow=classic;html=1;rounded=0;fontFamily=Comic Sans MS;fontSize=14;fontColor=#000000;exitX=0.5;exitY=1;exitDx=0;exitDy=0;entryX=1;entryY=0.5;entryDx=0;entryDy=0;" parent="qlQ8PFDM8nDWPTk6npvO-1" source="bIJbOU5z_14CMwWA4z-d-5" target="bIJbOU5z_14CMwWA4z-d-6" edge="1">
          <mxGeometry width="50" height="50" relative="1" as="geometry">
            <mxPoint x="268.25" y="540" as="sourcePoint" />
            <mxPoint x="188.25" y="590" as="targetPoint" />
            <Array as="points">
              <mxPoint x="528.25" y="740" />
              <mxPoint x="428.25" y="680" />
            </Array>
          </mxGeometry>
        </mxCell>
        <mxCell id="bIJbOU5z_14CMwWA4z-d-12" value="" style="curved=1;endArrow=classic;html=1;rounded=0;fontFamily=Comic Sans MS;fontSize=14;fontColor=#000000;entryX=0.25;entryY=1;entryDx=0;entryDy=0;exitX=0;exitY=0.75;exitDx=0;exitDy=0;" parent="qlQ8PFDM8nDWPTk6npvO-1" source="bIJbOU5z_14CMwWA4z-d-6" target="bIJbOU5z_14CMwWA4z-d-7" edge="1">
          <mxGeometry width="50" height="50" relative="1" as="geometry">
            <mxPoint x="268.25" y="740" as="sourcePoint" />
            <mxPoint x="258.25" y="720" as="targetPoint" />
            <Array as="points">
              <mxPoint x="238.25" y="690" />
              <mxPoint x="198.25" y="730" />
            </Array>
          </mxGeometry>
        </mxCell>
        <mxCell id="OYarK3M3KfXc6UeboWhu-0" value="" style="curved=1;endArrow=classic;html=1;rounded=0;exitX=0;exitY=0;exitDx=0;exitDy=22;exitPerimeter=0;" parent="qlQ8PFDM8nDWPTk6npvO-1" source="aVcyfSPcGgtynPqEaSZF-29" edge="1">
          <mxGeometry width="50" height="50" relative="1" as="geometry">
            <mxPoint x="608.25" y="540" as="sourcePoint" />
            <mxPoint x="468.25" y="500" as="targetPoint" />
            <Array as="points">
              <mxPoint x="698.25" y="430" />
              <mxPoint x="668.25" y="520" />
              <mxPoint x="538.25" y="530" />
              <mxPoint x="578.25" y="460" />
            </Array>
          </mxGeometry>
        </mxCell>
        <mxCell id="N_W4_Cv9C_rviVgOPDVo-0" value="" style="endArrow=none;html=1;rounded=0;strokeWidth=3;" parent="qlQ8PFDM8nDWPTk6npvO-1" edge="1">
          <mxGeometry width="50" height="50" relative="1" as="geometry">
            <mxPoint x="5.25" y="530" as="sourcePoint" />
            <mxPoint x="818.25" y="530" as="targetPoint" />
          </mxGeometry>
        </mxCell>
        <mxCell id="N_W4_Cv9C_rviVgOPDVo-1" value="" style="endArrow=none;html=1;rounded=0;strokeWidth=3;" parent="qlQ8PFDM8nDWPTk6npvO-1" edge="1">
          <mxGeometry width="50" height="50" relative="1" as="geometry">
            <mxPoint x="1.75" y="740" as="sourcePoint" />
            <mxPoint x="814.75" y="740" as="targetPoint" />
          </mxGeometry>
        </mxCell>
        <mxCell id="nAs8KH4V1zd_IxUIDnW7-0" value="Persistência" style="text;html=1;strokeColor=none;fillColor=none;align=center;verticalAlign=middle;whiteSpace=wrap;rounded=0;sketch=1;" parent="qlQ8PFDM8nDWPTk6npvO-1" vertex="1">
          <mxGeometry x="738.25" y="430" width="60" height="30" as="geometry" />
        </mxCell>
        <mxCell id="HWvanPMYoIooKniYTR3G-1" value="User History" style="swimlane;fontSize=16;fillColor=#ffe6cc;strokeColor=#d79b00;sketch=1;" vertex="1" parent="qlQ8PFDM8nDWPTk6npvO-1">
          <mxGeometry x="10" y="70" width="800" height="80" as="geometry" />
        </mxCell>
        <mxCell id="HWvanPMYoIooKniYTR3G-4" value="&lt;div&gt;&lt;span&gt;O dono de uma loja de carros quer um site com sistema de cadastro de usuários, amostra de produtos, compra e venda, armazenamento de dados e serviços.&lt;/span&gt;&lt;/div&gt;" style="text;html=1;strokeColor=none;fillColor=none;align=center;verticalAlign=middle;whiteSpace=wrap;rounded=0;fontSize=16;sketch=1;" vertex="1" parent="HWvanPMYoIooKniYTR3G-1">
          <mxGeometry x="65" y="20" width="670" height="60" as="geometry" />
        </mxCell>
        <mxCell id="HWvanPMYoIooKniYTR3G-5" value="Sistema de Gerenciamentos de banco de dados" style="shape=cylinder3;whiteSpace=wrap;html=1;boundedLbl=1;backgroundOutline=1;size=30.470588235294144;sketch=0;fontSize=16;align=center;" vertex="1" parent="qlQ8PFDM8nDWPTk6npvO-1">
          <mxGeometry x="680" y="760" width="118.25" height="150" as="geometry" />
        </mxCell>
        <mxCell id="HWvanPMYoIooKniYTR3G-15" style="edgeStyle=orthogonalEdgeStyle;rounded=0;orthogonalLoop=1;jettySize=auto;html=1;exitX=0.75;exitY=1;exitDx=0;exitDy=0;entryX=0.5;entryY=0;entryDx=0;entryDy=0;fontSize=16;" edge="1" parent="qlQ8PFDM8nDWPTk6npvO-1" source="HWvanPMYoIooKniYTR3G-6" target="HWvanPMYoIooKniYTR3G-11">
          <mxGeometry relative="1" as="geometry" />
        </mxCell>
        <mxCell id="HWvanPMYoIooKniYTR3G-16" style="edgeStyle=orthogonalEdgeStyle;rounded=0;orthogonalLoop=1;jettySize=auto;html=1;exitX=0.25;exitY=1;exitDx=0;exitDy=0;entryX=0.5;entryY=0;entryDx=0;entryDy=0;fontSize=16;" edge="1" parent="qlQ8PFDM8nDWPTk6npvO-1" source="HWvanPMYoIooKniYTR3G-6" target="HWvanPMYoIooKniYTR3G-12">
          <mxGeometry relative="1" as="geometry" />
        </mxCell>
        <mxCell id="HWvanPMYoIooKniYTR3G-18" style="edgeStyle=orthogonalEdgeStyle;rounded=0;orthogonalLoop=1;jettySize=auto;html=1;exitX=0;exitY=0.5;exitDx=0;exitDy=0;entryX=0.5;entryY=0;entryDx=0;entryDy=0;fontSize=16;" edge="1" parent="qlQ8PFDM8nDWPTk6npvO-1" source="HWvanPMYoIooKniYTR3G-6" target="HWvanPMYoIooKniYTR3G-10">
          <mxGeometry relative="1" as="geometry" />
        </mxCell>
        <mxCell id="HWvanPMYoIooKniYTR3G-6" value="Servidor de Aplicação" style="rounded=1;whiteSpace=wrap;html=1;sketch=0;fontSize=16;align=center;" vertex="1" parent="qlQ8PFDM8nDWPTk6npvO-1">
          <mxGeometry x="458.25" y="800" width="120" height="40" as="geometry" />
        </mxCell>
        <mxCell id="HWvanPMYoIooKniYTR3G-10" value="Firewall" style="shape=offPageConnector;whiteSpace=wrap;html=1;sketch=0;fontSize=16;align=center;size=0.25;" vertex="1" parent="qlQ8PFDM8nDWPTk6npvO-1">
          <mxGeometry x="278.25" y="840" width="80" height="80" as="geometry" />
        </mxCell>
        <mxCell id="HWvanPMYoIooKniYTR3G-11" value="Servidor de arquivos" style="rounded=1;whiteSpace=wrap;html=1;sketch=0;fontSize=16;align=center;" vertex="1" parent="qlQ8PFDM8nDWPTk6npvO-1">
          <mxGeometry x="546.5" y="880" width="91.75" height="40" as="geometry" />
        </mxCell>
        <mxCell id="HWvanPMYoIooKniYTR3G-12" value="Servidor de&lt;br&gt;e-mail" style="rounded=1;whiteSpace=wrap;html=1;sketch=0;fontSize=16;align=center;" vertex="1" parent="qlQ8PFDM8nDWPTk6npvO-1">
          <mxGeometry x="398.25" y="880" width="91.75" height="40" as="geometry" />
        </mxCell>
        <mxCell id="HWvanPMYoIooKniYTR3G-13" value="Servidor Web" style="rounded=1;whiteSpace=wrap;html=1;sketch=0;fontSize=16;align=center;" vertex="1" parent="qlQ8PFDM8nDWPTk6npvO-1">
          <mxGeometry x="80" y="800" width="100" height="30" as="geometry" />
        </mxCell>
        <mxCell id="HWvanPMYoIooKniYTR3G-14" value="" style="curved=1;endArrow=classic;html=1;rounded=0;fontSize=16;exitX=0;exitY=0;exitDx=0;exitDy=30.470588235294144;exitPerimeter=0;entryX=1;entryY=0;entryDx=0;entryDy=0;" edge="1" parent="qlQ8PFDM8nDWPTk6npvO-1" source="HWvanPMYoIooKniYTR3G-5" target="HWvanPMYoIooKniYTR3G-6">
          <mxGeometry width="50" height="50" relative="1" as="geometry">
            <mxPoint x="540" y="850" as="sourcePoint" />
            <mxPoint x="590" y="800" as="targetPoint" />
            <Array as="points">
              <mxPoint x="660" y="800" />
              <mxPoint x="610" y="750" />
            </Array>
          </mxGeometry>
        </mxCell>
        <mxCell id="HWvanPMYoIooKniYTR3G-19" value="" style="curved=1;endArrow=classic;html=1;rounded=0;fontSize=16;entryX=0.25;entryY=1;entryDx=0;entryDy=0;exitX=0;exitY=0.75;exitDx=0;exitDy=0;" edge="1" parent="qlQ8PFDM8nDWPTk6npvO-1" source="HWvanPMYoIooKniYTR3G-10" target="HWvanPMYoIooKniYTR3G-13">
          <mxGeometry width="50" height="50" relative="1" as="geometry">
            <mxPoint x="140" y="940" as="sourcePoint" />
            <mxPoint x="190" y="890" as="targetPoint" />
            <Array as="points">
              <mxPoint x="160" y="910" />
              <mxPoint x="230" y="860" />
              <mxPoint x="110" y="880" />
            </Array>
          </mxGeometry>
        </mxCell>
        <mxCell id="HWvanPMYoIooKniYTR3G-20" value="Text" style="text;html=1;strokeColor=none;fillColor=none;align=center;verticalAlign=middle;whiteSpace=wrap;rounded=0;sketch=0;fontSize=16;" vertex="1" parent="qlQ8PFDM8nDWPTk6npvO-1">
          <mxGeometry x="360" y="820" width="60" height="30" as="geometry" />
        </mxCell>
        <mxCell id="HWvanPMYoIooKniYTR3G-21" value="SGDB" style="text;html=1;strokeColor=none;fillColor=none;align=center;verticalAlign=middle;whiteSpace=wrap;rounded=0;sketch=0;fontSize=16;" vertex="1" parent="qlQ8PFDM8nDWPTk6npvO-1">
          <mxGeometry x="709" y="770" width="60" height="30" as="geometry" />
        </mxCell>
        <mxCell id="HWvanPMYoIooKniYTR3G-22" value="" style="endArrow=none;html=1;rounded=0;strokeWidth=3;" edge="1" parent="qlQ8PFDM8nDWPTk6npvO-1">
          <mxGeometry width="50" height="50" relative="1" as="geometry">
            <mxPoint x="7" y="930" as="sourcePoint" />
            <mxPoint x="820" y="930" as="targetPoint" />
          </mxGeometry>
        </mxCell>
      </root>
    </mxGraphModel>
  </diagram>
</mxfile>
